<svg width="176" height="32" viewBox="0 0 176 32" fill="none" xmlns="http://www.w3.org/2000/svg">
<path d="M5.2177 -3.7126e-08C9.96814 -3.7126e-08 12.6938 1.94647 12.6938 5.21655C12.6938 7.94161 11.1363 9.6545 8.33274 10.0438C11.7593 10.8224 13.3947 12.3796 13.3947 15.1825C13.3947 18.9197 10.7469 21.0219 6.07434 21.0219H1.16814C0.467259 21.0219 2.37659e-06 20.5547 2.37659e-06 19.9319V1.24574C2.37659e-06 0.622871 0.545135 0.077859 1.16814 0.077859H5.2177V-3.7126e-08ZM2.33629 2.25791V8.95377H4.9062C8.25487 8.95377 10.1239 7.70803 10.1239 5.52798C10.1239 3.19221 8.72213 2.25791 5.06195 2.25791H2.33629ZM2.33629 11.2117V18.764H5.68496C9.11151 18.764 10.8248 17.5182 10.8248 15.0268C10.8248 12.691 8.64425 11.2117 4.98407 11.2117H2.33629Z" transform="translate(114.322 2.56934)" fill="#BF0000"/>
<path d="M0.0778785 1.16788C0.0778785 0.545012 0.623011 3.7126e-08 1.24602 3.7126e-08C1.86903 3.7126e-08 2.41416 0.545012 2.41416 1.16788V19.2311H10.1239C10.7469 19.2311 11.292 19.6983 11.292 20.3212C11.292 20.944 10.7469 21.4112 10.1239 21.4112H1.16814C0.54513 21.4112 -2.37659e-06 20.944 -2.37659e-06 20.2433V1.16788H0.0778785Z" transform="translate(129.43 2.10217)" fill="#BF0000"/>
<path d="M17.2885 10.9791C17.2885 17.4414 13.8619 21.8015 8.64424 21.8015C3.42654 21.8015 2.37659e-06 17.4414 2.37659e-06 10.9791C2.37659e-06 4.43895 3.50442 0.000991264 8.72212 0.000991264C13.7841 -0.0768676 17.2885 4.43895 17.2885 10.9791ZM2.56992 10.9791C2.56992 16.3514 4.82831 19.5436 8.64424 19.5436C12.538 19.5436 14.7186 16.4292 14.7186 11.057C14.7186 5.52897 12.4602 2.2589 8.56637 2.2589C4.82832 2.18104 2.56992 5.52897 2.56992 10.9791Z" transform="translate(140.8 2.17896)" fill="#BF0000"/>
<path d="M16.1982 17.0511C16.1982 17.5961 16.0425 18.0633 15.731 18.5304C14.1735 20.7105 11.8372 21.8005 8.95576 21.8005C3.66018 21.8005 4.75318e-06 17.3625 4.75318e-06 10.9781C4.75318e-06 4.59367 3.73806 -3.7126e-08 8.95576 -3.7126e-08C11.9929 -3.7126e-08 13.5504 1.09002 15.3416 3.27007C15.731 3.81509 15.731 4.43796 15.1858 4.90511C14.6407 5.2944 13.8619 5.21654 13.3947 4.74939C12.2266 3.19221 10.8248 2.33577 8.87788 2.33577C4.98407 2.33577 2.56991 5.76156 2.56991 11.1338C2.56991 16.4282 4.98408 19.6204 8.95576 19.6204C11.1363 19.6204 12.7717 18.8419 13.8619 17.2847V12.9246H9.89027C9.26726 12.9246 8.72213 12.4574 8.72213 11.8345C8.72213 11.2117 9.26726 10.7445 9.89027 10.7445H15.108C15.731 10.7445 16.2761 11.2895 16.2761 11.9124V17.0511H16.1982Z" transform="translate(159.724 2.17993)" fill="#BF0000"/>
<path d="M65.1823 0H2.97074e-07L5.2177 5.13869L65.1823 0Z" transform="translate(21.4939 26.8613)" fill="#BF0000"/>
<path d="M11.8372 0.467153V1.24574C10.5912 0.467153 9.57876 7.4252e-08 8.02124 7.4252e-08C3.42655 7.4252e-08 5.94148e-07 4.12652 5.94148e-07 9.26521C5.94148e-07 14.4039 3.50442 18.5304 8.02124 18.5304C9.50089 18.5304 10.5912 18.0633 11.8372 17.2847V18.0633H15.8088V0.467153H11.8372ZM8.02124 14.326C5.76283 14.326 4.12743 12.146 4.12743 9.34307C4.12743 6.54015 5.76283 4.3601 8.02124 4.3601C10.2796 4.3601 11.8372 6.54015 11.8372 9.34307C11.915 12.146 10.2796 14.326 8.02124 14.326Z" transform="translate(15.7307 5.37231)" fill="#BF0000"/>
<path d="M10.5911 0V10.3552C10.5911 12.3017 9.26726 13.9367 7.32036 13.9367C5.37345 13.9367 4.04956 12.3017 4.04956 10.3552V0H0V10.3552C0 14.6375 2.88141 18.0633 7.1646 18.0633C9.1115 18.0633 10.5911 16.9732 10.5911 16.9732V17.5961H14.6407V0H10.5911Z" transform="translate(49.062 5.83948)" fill="#BF0000"/>
<path d="M4.04956 18.0633V7.70803C4.04956 5.76156 5.37345 4.12652 7.32036 4.12652C9.26726 4.12652 10.5912 5.76156 10.5912 7.70803V18.0633H14.6407V7.70803C14.6407 3.42579 11.7593 0 7.47611 0C5.5292 0 4.04956 1.09002 4.04956 1.09002V0.389294H1.1883e-06V18.0633H4.04956Z" transform="translate(92.9841 5.45007)" fill="#BF0000"/>
<path d="M4.20531 22.1119V15.2603H7.1646L12.3044 22.1119H17.5221L11.292 13.8589C13.2389 12.4574 14.485 10.1995 14.485 7.63017C14.485 3.42579 11.0584 -3.7126e-08 6.8531 -3.7126e-08H0V22.0341H4.20531V22.1119ZM4.20531 4.28224H6.93097C8.8 4.28224 10.3575 5.83942 10.3575 7.70803C10.3575 9.57664 8.8 11.1338 6.93097 11.1338H4.20531V4.28224Z" transform="translate(0 1.40149)" fill="#BF0000"/>
<path d="M9.34513 17.9854C8.95575 18.219 8.56637 18.4526 8.02124 18.4526C7.39823 18.4526 6.15221 17.9854 6.15221 16.2725V8.72019H9.57876V4.43796H6.15221V-3.7126e-08H2.10266V4.43796H-2.37659e-06V8.64233H2.10266V16.2725C2.10266 20.2433 5.06195 22.5791 8.09911 22.5791C9.18938 22.5791 10.7469 22.1898 11.9929 21.489L9.34513 17.9854Z" transform="translate(65.1821 1.40149)" fill="#BF0000"/>
<path d="M7.63186 14.1703L14.5628 5.83942H8.95575L4.12743 11.9903V0H0V23.5134H4.12743V16.2725L10.046 23.5134H15.6531L7.63186 14.1703Z" transform="translate(33.8762)" fill="#BF0000"/>
<path d="M7.94336 0C3.2708 0 1.1883e-06 4.04866 1.1883e-06 9.26521C1.1883e-06 14.7153 4.20531 18.5304 8.33274 18.5304C10.4354 18.5304 13.1611 17.8297 15.4195 14.5596L11.915 12.5353C9.18938 16.5839 4.59469 14.5596 4.04956 10.5109H15.5752C16.5876 4.12652 12.4602 0 7.94336 0ZM11.4478 6.92944H4.20531C5.06195 2.80292 10.669 2.56934 11.4478 6.92944Z" transform="translate(75.8513 5.45007)" fill="#BF0000"/>
</svg>
